<svg xmlns="http://www.w3.org/2000/svg" xmlns:xlink="http://www.w3.org/1999/xlink" width="500" zoomAndPan="magnify" viewBox="0 0 375 374.999991" height="500" preserveAspectRatio="xMidYMid meet" version="1.0"><defs><clipPath id="be66afcd5f"><path d="M 125 125 L 250 125 L 250 250 L 125 250 Z M 125 125 " clip-rule="nonzero"/></clipPath><clipPath id="69c3786885"><path d="M 187.5 125 C 152.980469 125 125 152.980469 125 187.5 C 125 222.019531 152.980469 250 187.5 250 C 222.019531 250 250 222.019531 250 187.5 C 250 152.980469 222.019531 125 187.5 125 Z M 187.5 125 " clip-rule="nonzero"/></clipPath><clipPath id="16787342a2"><path d="M 0 0 L 125 0 L 125 125 L 0 125 Z M 0 0 " clip-rule="nonzero"/></clipPath><clipPath id="ec7aa586d3"><path d="M 62.5 0 C 27.980469 0 0 27.980469 0 62.5 C 0 97.019531 27.980469 125 62.5 125 C 97.019531 125 125 97.019531 125 62.5 C 125 27.980469 97.019531 0 62.5 0 Z M 62.5 0 " clip-rule="nonzero"/></clipPath><clipPath id="bd34b30fec"><rect x="0" width="125" y="0" height="125"/></clipPath></defs><rect x="-37.5" width="450" fill="#ffffff" y="-37.499999" height="449.999989" fill-opacity="1"/><rect x="-37.5" width="450" fill="#141312" y="-37.499999" height="449.999989" fill-opacity="1"/><g clip-path="url(#be66afcd5f)"><g clip-path="url(#69c3786885)"><g transform="matrix(1, 0, 0, 1, 125, 125)"><g clip-path="url(#bd34b30fec)"><g clip-path="url(#16787342a2)"><g clip-path="url(#ec7aa586d3)"><rect x="-207.5" width="540" fill="#c2a14d" height="539.999987" y="-207.499998" fill-opacity="1"/></g></g></g></g></g></g></svg>