<?xml version="1.0" encoding="UTF-8" standalone="no"?>
<!-- Created with Inkscape (http://www.inkscape.org/) -->

<svg
   width="512"
   height="512"
   viewBox="0 0 135.46666 135.46667"
   version="1.1"
   id="svg1"
   xmlns="http://www.w3.org/2000/svg"
   xmlns:svg="http://www.w3.org/2000/svg">
  <defs
     id="defs1" />
  <g
     id="layer1">
    <path
       id="path4"
       style="fill:#31748f;fill-opacity:1;stroke-width:0.27168"
       d="m 13.397138,13.397162 v 27.168084 h 27.168097 v 2.343247 a 40.752145,40.752124 0 0 1 0.01111,0.0048 v 49.644895 h -0.0054 V 78.974123 A 13.584052,13.584044 0 0 1 26.986948,92.558165 h -13.58986 v 27.148465 a 40.752145,40.752124 0 0 0 0.06687,0.0197 40.752145,40.752124 0 0 0 13.517189,2.34324 40.752145,40.752124 0 0 0 13.595192,-2.34324 40.752145,40.752124 0 0 0 4.302324,-1.82589 40.752145,40.752124 0 0 0 1.410937,-0.76782 40.752145,40.752124 0 0 0 2.663747,-1.54146 40.752145,40.752124 0 0 0 1.554207,-1.07293 40.752145,40.752124 0 0 0 2.238714,-1.69325 40.752145,40.752124 0 0 0 1.501676,-1.29047 40.752145,40.752124 0 0 0 1.972868,-1.91502 40.752145,40.752124 0 0 0 1.355753,-1.44013 40.752145,40.752124 0 0 0 1.788214,-2.22491 40.752145,40.752124 0 0 0 1.116969,-1.47089 40.752145,40.752124 0 0 0 1.894337,-3.06122 40.752145,40.752124 0 0 0 0.779491,-1.4019 40.752145,40.752124 0 0 0 1.67678,-3.645938 40.752145,40.752124 0 0 0 0.631448,-1.828005 40.752145,40.752124 0 0 0 0.686631,-1.988259 h -0.05413 a 40.752145,40.752124 0 0 0 1.64817,-11.240873 40.752145,40.752124 0 0 0 -0.01112,-0.179882 V 40.565246 13.397162 h -27.16812 z" />
    <path
       d="m 28.110945,118.36797 a 39.6875,39.6875 0 0 1 -0.06511,-0.0191 v 0.0191 z"
       style="stroke-width:0.187088"
       id="path29" />
    <path
       id="path1"
       style="fill:#9ccfd8;fill-opacity:1;stroke-width:0.27168"
       d="M 94.90143,13.397162 67.733333,67.733327 94.90143,122.06949 h 27.16809 L 94.90143,67.733327 122.06952,13.397162 Z" />
  </g>
</svg>
