<?xml version="1.0" encoding="UTF-8" standalone="no"?>
<!-- Created with Inkscape (http://www.inkscape.org/) -->

<svg
   width="512"
   height="512"
   viewBox="0 0 135.46666 135.46667"
   version="1.1"
   id="svg1"
   xmlns="http://www.w3.org/2000/svg"
   xmlns:svg="http://www.w3.org/2000/svg">
  <defs
     id="defs1" />
  <g
     id="layer1">
    <path
       id="path4"
       style="fill:#31748f;fill-opacity:1;stroke-width:0.338666"
       d="m 0,0 v 33.866664 h 33.866664 v 2.921 a 50.799996,50.799996 0 0 1 0.01389,0.006 v 61.885374 h -0.0067 V 81.74566 A 16.933336,16.933335 0 0 1 16.940608,98.678992 H 0 v 33.842188 a 50.799996,50.799996 0 0 0 0.08334335,0.0245 50.799996,50.799996 0 0 0 16.84998765,2.921 50.799996,50.799996 0 0 0 16.947223,-2.921 50.799996,50.799996 0 0 0 5.363104,-2.27608 50.799996,50.799996 0 0 0 1.758817,-0.95714 50.799996,50.799996 0 0 0 3.320521,-1.92153 50.799996,50.799996 0 0 0 1.937411,-1.33746 50.799996,50.799996 0 0 0 2.790693,-2.11072 50.799996,50.799996 0 0 0 1.871927,-1.60866 50.799996,50.799996 0 0 0 2.459301,-2.3872 50.799996,50.799996 0 0 0 1.690026,-1.7952 50.799996,50.799996 0 0 0 2.229115,-2.77349 50.799996,50.799996 0 0 0 1.39237,-1.83356 50.799996,50.799996 0 0 0 2.361405,-3.81597 50.799996,50.799996 0 0 0 0.971683,-1.74757 50.799996,50.799996 0 0 0 2.090207,-4.54488 50.799996,50.799996 0 0 0 0.787136,-2.27872 50.799996,50.799996 0 0 0 0.855927,-2.478484 h -0.06747 A 50.799996,50.799996 0 0 0 67.747218,84.666634 50.799996,50.799996 0 0 0 67.73333,84.4424 V 33.866664 0 H 33.866664 Z" />
    <path
       id="path1"
       style="fill:#9ccfd8;fill-opacity:1;stroke-width:0.338666"
       d="M 101.59999,0 67.733327,67.733327 101.59999,135.46665 h 33.86667 L 101.59999,67.733327 135.46666,0 Z" />
  </g>
</svg>
